<svg width="386" height="150" viewBox="0 0 386 150" fill="none" xmlns="http://www.w3.org/2000/svg">
<path fill-rule="evenodd" clip-rule="evenodd" d="M83.0193 0H66.8261C61.4551 0 56.9834 4.11818 56.5481 9.4656L55.8869 17.5882C53.0535 18.5331 50.3135 19.6811 47.6847 21.0146L39.4475 14.2865C35.3472 10.9374 29.3736 11.2359 25.6283 14.977L14.8712 25.7222C11.1253 29.4639 10.8271 35.4321 14.1813 39.5278L20.954 47.7976C19.6549 50.3726 18.5339 53.0538 17.6077 55.8248L9.47612 56.4853C4.12276 56.9202 0 61.3868 0 66.7519V82.9271C0 88.2907 4.12054 92.7566 9.47226 93.1933L17.4996 93.8484C18.4441 96.7292 19.5987 99.5139 20.945 102.185L14.8954 109.671C11.5842 113.768 11.9001 119.7 15.6277 123.424L26.4068 134.191C30.1333 137.914 36.0701 138.23 40.1722 134.925L47.5989 128.942C50.2537 130.294 53.0223 131.457 55.8869 132.412L56.5481 140.534C56.9834 145.882 61.455 150 66.8261 150H83.0193C86.942 150 90.3852 147.803 92.1263 144.535C98.1595 148.011 105.16 150 112.625 150C135.316 150 153.711 131.625 153.711 108.959C153.711 101.602 151.773 94.6962 148.379 88.7247C149.509 87.0684 150.167 85.0693 150.167 82.9271V66.7519C150.167 61.3868 146.044 56.9202 140.691 56.4853L132.559 55.8248C131.588 52.9192 130.402 50.1123 129.022 47.423L135.168 39.4228C138.291 35.3579 137.948 29.6182 134.363 25.9532L123.857 15.2117C120.096 11.3675 114.009 11.0573 109.877 14.4994L102.216 20.8805C99.5673 19.5533 96.807 18.4139 93.9527 17.4801L93.2969 9.46175C92.8597 4.11598 88.3888 0 83.0193 0ZM142.433 80.7135V66.7519C142.433 65.4106 141.402 64.294 140.064 64.1852L130.34 63.3954C128.102 63.2136 126.263 61.597 125.603 59.4529C124.573 56.1119 123.221 52.9123 121.582 49.8904C120.552 47.9908 120.636 45.6495 121.952 43.9356L129.033 34.7195C129.814 33.7033 129.728 32.2684 128.832 31.3521L118.325 20.6106C117.385 19.6496 115.863 19.572 114.83 20.4325L105.951 27.8283C104.239 29.2543 101.815 29.3969 99.8462 28.3521C96.8427 26.7579 93.6669 25.4447 90.3541 24.4476C88.1929 23.7971 86.559 21.9553 86.3753 19.7082L85.5887 10.0908C85.4794 8.75431 84.3617 7.72532 83.0193 7.72532H66.8261C65.4833 7.72532 64.3654 8.75487 64.2566 10.0917L63.1602 23.5593C58.5453 24.6223 54.1614 26.289 50.0965 28.4717C48.1417 29.5214 45.729 29.3964 44.0109 27.9931L34.5518 20.267C33.5268 19.4297 32.0334 19.5044 31.097 20.4396L20.3399 31.1849C19.4034 32.1203 19.3288 33.6123 20.1674 34.6362L27.9365 44.1227C29.338 45.8339 29.4669 48.2362 28.4251 50.1869C26.8578 53.1213 25.5599 56.221 24.5642 59.4529C23.9037 61.597 22.0651 63.2136 19.8267 63.3954L10.1029 64.1852C8.7646 64.294 7.73391 65.4106 7.73391 66.7519V82.9271C7.73391 84.268 8.76404 85.3845 10.102 85.4937L19.7302 86.2793C21.9798 86.4629 23.8236 88.095 24.4748 90.2537C25.8393 94.7772 27.7951 99.0447 30.2523 102.967L20.9133 114.523C20.0855 115.547 20.1645 117.031 21.0964 117.961L31.8755 128.728C32.8071 129.659 34.2913 129.738 35.3168 128.912L43.9655 121.944C45.6846 120.559 48.0843 120.444 50.0281 121.491C53.0291 123.109 56.2045 124.444 59.519 125.463C61.6655 126.123 63.2839 127.959 63.4659 130.195L64.2566 139.908C64.3654 141.245 65.4833 142.275 66.8261 142.275H83.0193C84.3617 142.275 85.4794 141.246 85.5887 139.909L85.5922 139.866C76.9791 132.343 71.5387 121.286 71.5387 108.959C71.5387 107.649 71.6002 106.352 71.7204 105.073C56.5737 103.402 44.7922 90.5753 44.7922 75C44.7922 58.2892 58.354 44.7425 75.0834 44.7425C89.6424 44.7425 101.803 55.0024 104.712 68.6788C107.273 68.1799 109.918 67.9184 112.625 67.9184C124.36 67.9184 134.946 72.8327 142.433 80.7135ZM97.2649 70.8826C95.3279 60.4046 86.1336 52.4678 75.0834 52.4678C62.6253 52.4678 52.5261 62.5558 52.5261 75C52.5261 86.8023 61.6103 96.4852 73.1754 97.4527C76.7088 85.3452 85.6768 75.5514 97.2649 70.8826ZM128.769 119.935L124.082 124.616L116.679 130.435C115.172 131.619 112.989 131.359 111.803 129.853C110.617 128.348 110.878 126.167 112.385 124.983L116.718 121.577L97.3863 119.116C95.4841 118.873 94.1387 117.137 94.3812 115.237C94.6237 113.337 96.3623 111.993 98.2645 112.235L125.818 115.744C127.206 115.92 128.352 116.912 128.725 118.259C128.88 118.818 128.889 119.392 128.769 119.935ZM130.58 105.861C130.337 107.761 128.598 109.105 126.696 108.863L99.1426 105.354C97.7546 105.177 96.6084 104.186 96.2353 102.838C95.8622 101.491 96.335 100.052 97.4348 99.1879L108.282 90.663C109.789 89.4786 111.972 89.7389 113.158 91.2443C114.344 92.7496 114.083 94.9301 112.576 96.1145L108.242 99.5202L127.574 101.982C129.477 102.224 130.822 103.961 130.58 105.861Z" fill="#6CEBD2"/>
<path fill-rule="evenodd" clip-rule="evenodd" d="M321.794 60.375C315.155 65.5291 311.257 72.9318 311.323 81.756C311.302 88.9853 313.832 94.7256 318.491 99.064C323.097 103.353 329.664 106.165 337.564 107.855L346.255 109.721L346.257 109.721C351.079 110.774 354.078 111.857 355.857 113.036C356.722 113.61 357.245 114.171 357.561 114.714C357.868 115.239 358.031 115.832 358.052 116.559C358.011 118.109 357.311 119.42 355.823 120.408C354.26 121.447 351.754 122.166 348.154 122.166C344.366 122.166 341.439 121.384 339.346 120.012C337.29 118.664 335.911 116.666 335.318 113.94C334.868 111.869 333.098 109.942 330.617 109.942H313.647C311.163 109.942 309.034 111.983 309.207 114.582C309.897 124.929 314.063 132.606 321.037 137.645C327.947 142.639 337.415 144.904 348.495 144.904C359.772 144.904 369.026 142.486 375.514 137.671C382.069 132.807 385.623 125.624 385.668 116.566L385.668 116.556L385.668 116.547C385.623 109.564 383.495 103.484 378.736 98.6269C374.017 93.8096 366.86 90.3471 357.038 88.2487L349.874 86.7206L349.872 86.7201L349.87 86.7196C345.786 85.8603 343.069 84.8754 341.424 83.7345C340.625 83.1799 340.13 82.6229 339.837 82.0727C339.55 81.5326 339.408 80.9106 339.448 80.1415L339.449 80.1078L339.45 80.0741C339.465 78.6944 340.017 77.5609 341.266 76.706C342.594 75.7972 344.838 75.1254 348.325 75.1254C351.352 75.1254 353.527 75.6824 355.041 76.5787C356.515 77.4518 357.475 78.7113 357.992 80.3829C358.575 82.2672 360.267 84.1236 362.7 84.1236H379.929C382.396 84.1236 384.578 82.0903 384.328 79.4424C383.553 71.2471 379.73 64.4304 373.44 59.6907C367.177 54.9707 358.578 52.388 348.325 52.388C337.654 52.388 328.402 55.2445 321.794 60.375ZM108.193 75.9743H128.793C129.419 75.9743 129.926 76.4791 129.926 77.1018V139.375C129.926 141.866 131.955 143.885 134.457 143.885H152.158C154.661 143.885 156.689 141.866 156.689 139.375V77.1018C156.689 76.4791 157.196 75.9743 157.822 75.9743H178.422C180.925 75.9743 182.953 73.9549 182.953 71.4639V58.0868C182.953 55.5958 180.925 53.5765 178.422 53.5765H108.193C105.691 53.5765 103.662 55.5958 103.662 58.0868V71.4639C103.662 73.9549 105.691 75.9743 108.193 75.9743ZM208.328 53.5765H197.619C195.117 53.5765 193.088 55.5958 193.088 58.0868V65.4545C193.088 71.3928 191.752 75.6378 190.075 79.0622C188.993 81.2706 189.733 84.1021 192.085 85.2935L197.426 87.9985C199.054 88.8232 201.115 88.6252 202.5 87.2545C207.676 82.1315 212.859 73.6887 212.859 65.4545V58.0868C212.859 55.5958 210.83 53.5765 208.328 53.5765ZM275.32 58.0868V111.634C275.32 114.356 274.226 116.578 272.214 118.159C270.164 119.77 267.033 120.808 262.864 120.808C258.787 120.808 255.699 119.773 253.668 118.163C251.673 116.582 250.578 114.357 250.578 111.634V58.0868C250.578 55.5958 248.549 53.5765 246.047 53.5765H228.005C225.502 53.5765 223.474 55.5958 223.474 58.0868V112.653C223.474 123.041 227.332 131.194 234.33 136.708C241.272 142.178 251.115 144.904 262.864 144.904C274.53 144.904 284.37 142.177 291.331 136.709C298.347 131.199 302.253 123.047 302.253 112.653V58.0868C302.253 55.5958 300.225 53.5765 297.723 53.5765H279.851C277.348 53.5765 275.32 55.5958 275.32 58.0868Z" fill="#1C3757"/>
</svg>
